<svg version="1" xmlns="http://www.w3.org/2000/svg" width="346.667" height="346.667" viewBox="0 0 260.000000 260.000000"><path d="M0 130v130h260v-15.4c0-8.6-.4-15.7-.9-16.1-.6-.3-2.9 0-5.3.6s-6.2 1.2-8.5 1.4c-2.3.2-6 .9-8.2 1.5-2.3.6-5.8 1.1-7.9 1-2 0-5.2.2-7.1.6-3.1.6-3.3.5-2.7-1.7.7-2.2.6-2.3-.7-.6-1.1 1.3-3 1.8-8.3 1.8-14.9.3-18.6 0-17.8-1.2.5-.9.2-1-1-.6-1 .4-2.4.7-3.2.7-.9 0-1.3.4-.9.9.3.5.1 1.2-.5 1.6-.5.3-1-.1-1-.9 0-.9-.5-1.6-1.1-1.6-.5 0-.7-.5-.4-1 .4-.7-.2-.6-1.7 0-1.7.8-3.8.7-8.2-.4-3.2-.9-6.3-1.3-6.8-1-.6.4-2.9.1-5.2-.6-4.8-1.6-6.8-2.9-3.4-2.4 1.8.4 3-.6 5.8-4.8 2.6-3.9 4.2-5.3 6.4-5.5 2.2-.3 2.7-.1 2.3 1.1-.5 1.1 0 1.6 1.3 1.6 1.1 0 2 .7 2 1.5 0 1-1 1.5-2.9 1.5-1.6 0-3.1.6-3.4 1.4-.4.9.4 1.3 3.1 1.2 3-.1 3.7-.6 4.3-2.6.4-1.4.7-1.9.8-1.2.1.7.9.4 2.2-.9 2.7-2.7 5.2-2.1 6 1.6.5 2.4 1.4 1.8 1-.7 0-.4.6-.5 1.5-.1 1.1.4 1.2.8.4 1.3-.7.5-.1.9 1.6 1.3 2 .3 3.3-.2 5.2-2 2.4-2.4 2.6-2.5 3.9-.7.7 1 1.3 2.3 1.3 3 0 .7.8 1 1.9.7 1.1-.3 2.1.2 2.4 1.1 1 2.6-.3 4.6-3.2 4.7-2.6.1-2.6.1.4.9 1.7.4 2.4.8 1.6.9-.8 0-1.1.4-.8.7 1.6 1.6 3.7-2.1 3.8-6.5 0-2.5.3-4 .6-3.4.7 1.8 2.3 1.6 2.3-.2 0-2 2.6-1.9 3.4 0 .3.8 1.1 1.4 1.8 1.3.8-.2 1.3.7 1.3 2.4-.1 1.6.3 2.8.7 2.8.4 0 .8-1.5.8-3.3.1-2.2.8-3.7 2.5-5 2.2-1.6 2.6-1.6 3.1-.3.3.9.9 1.4 1.3 1.1.4-.2 2 .3 3.5 1 2.5 1.3 2.7 1.3 2.3 0-.4-.9-.1-1.2.8-.8.9.3 1.8-.4 2.3-1.8l.9-2.3 1.9 2.2c2.1 2.5 3.9 2.9 3 .7-1-2.7 3-1.7 4.5 1.1l1.4 2.6.5-2.2c.7-2.8 4-5.1 4.7-3.3.6 1.8 2.3 1.6 2.3-.2 0-1.7 1.6-2 2.5-.4.4.6-.1 1.6-1.1 2.4-1.7 1.2-1.6 1.3.8.8 1.9-.4 2.7-1.3 3.2-3.5.8-3.9.8-85.8 0-85.8-1.1 0-7.9 5.5-10.7 8.7-1.6 1.8-3.3 3.1-3.8 2.8-2.1-1.3-4.1 6.6-2.7 10.5.7 2 .4 3.6-1.6 7.5-3.6 7.2-5.8 14.8-4 14.1 1-.4 1.3.4 1.2 2.9-.1 2.7-.9 4.1-3.5 6.1-1.8 1.4-3.3 2.2-3.3 1.8 0-.3-.7-.1-1.5.6-.8.6-2 .8-2.6.4-.7-.4-.9-.3-.6.3.7 1.1-1.4 2.3-3.9 2.3-.9 0-1.2-.5-.8-1.2.5-.8-.6-.9-4.1-.5l-4.8.7 4.3-4c2.4-2.2 4.1-4.3 3.8-4.6-.4-.3-3.1-.7-6.2-.9-3-.2-5.9-.6-6.3-.8-.5-.3-2.6-.8-4.8-1.2l-4-.7 2.3 2.1c2.3 2.3 2.2 4.1-.3 4.1-2.3 0-2.9 2.2-1.1 3.6 2.9 2.1 3.1 16 .2 14.1-.2-.1-1.2.5-2.2 1.4-2.6 2.2-8.7 2.2-12.6 0-2.2-1.2-6.2-2.1-11.7-2.4-10-.6-13.6-2.7-4.6-2.7 3.2 0 5.6-.2 5.3-.5-.3-.3-3.6-.6-7.4-.6-3.8-.1-8.7-.8-10.9-1.6-4.6-1.8-12.5-9.5-12.5-12.3 0-1-.4-2.1-.9-2.4-.5-.3-1.1-2.1-1.3-4-.3-2.8-.1-3.3.9-2.4.8.6 1.1 1.9.7 3.1-.5 1.6-.3 1.9 1.1 1.4.9-.4 1.9-.7 2.1-.7.2 0 .2-1.1-.2-2.5-.6-2.4-.5-2.5 2.1-1.5 1.4.5 6.1 1 10.4 1 4.2 0 10.4.7 13.6 1.6 7.6 2.1 12.2 2.8 7.1 1.1-2.4-.8-4.4-2.3-5.3-4.1-1.1-2.1-1.8-2.5-2.6-1.7-1.3 1.3-3.1 1.5-2.3.2.3-.5-.1-1.2-1-1.5-.9-.4-1.4-.9-1.1-1.2.3-.3.1-1.9-.5-3.5-.8-2.2-1.5-2.8-2.8-2.4-1.2.4-2 0-2.3-1.2-.4-1.7-.5-1.7-.6 0-.1 2.6-2.4 1.6-2.6-1.1-.2-3.2-.9-3.5-6.4-2.7-3.5.5-4.9 1.1-4.4 1.8.5.9.3.9-.8.1-.8-.6-3.4-1.4-5.9-1.8-14.2-2.2-33-13-25.8-14.9 1.8-.5 1.9-.7.5-2.1-1.4-1.5-2.5-6.8-2.9-14.7-.1-2.8-.6-3.5-1.7-3.1-1 .4-1.3.1-.8-1.1.3-.9.3-1.6-.1-1.6-2 .3-2.1-.4-.6-3.4 1.6-2.9 1.6-3.1.1-1.8-1.5 1.1-1.7 1.1-1.7-.2 0-2.3 1.1-4.7 2.2-4.7.5 0 .6.5.2 1.1-.4.7-.1 1 .7.7.8-.3 1.4-1.4 1.3-2.6 0-1.1.4-2 1-1.9.6.1 1-.8.9-2-.1-1.1.5-2.7 1.5-3.4 1.4-1.1 1.5-1.1.5.1-.7.8-1.3 1.9-1.3 2.5 0 .5.7.2 1.5-.9 1-1.3 1.1-2.4.5-3.7-.7-1.2-.6-2 .2-2.5.7-.4.8-.3.4.4s-.2 1.2.3 1.2c.6 0 1.1-.4 1.1-.9 0-.6 1-.8 2.3-.5 1.2.3 4.7.7 7.7.8 3 .2 5.6.4 5.7.5.1.1-.5 1.8-1.3 3.8-2.1 5.1-5.5 10.5-6.1 9.9-.3-.3.1-1.6 1-2.9.9-1.3 1.9-4.1 2.3-6.2.6-3.4.5-3.7-1-3.2-1 .4-2 .7-2.2.7-.3 0 0 .9.6 2 .8 1.4.8 2 0 2-.6 0-.8.4-.5 1 .3.5.2 1-.2 1-.5 0-1 1.7-1.1 3.9-.3 3.6-.1 3.9 3 4.5 1.8.3 4.7.3 6.3 0 1.7-.3 7.5-.9 13-1.3s8.7-.9 7-1.1c-1.9-.1-2.3-.4-1.2-.7 2.2-.6 2.2-1.5-.3-3-1.6-1-1.8-1-1.4.1.5 1.4-3.9 3.1-5.6 2.1-.4-.3-1.1.1-1.4.7-.5 1-.7 1-1.2.1-.4-.9-1.1-1-2.3-.3-1.5.7-1.8.5-1.7-1.2 0-1.2.7-2.3 1.4-2.4.7-.1.8 0 .2.3-1.6.7-.1 2.3 1.6 1.6 1.1-.4 1.2-.9.3-1.9-1.8-2.2-3.1-1.7-6.8 2.3-3.2 3.5-3.5 3.6-4.3 1.7-.7-1.4-.3-3.7 1.2-7.7 1.2-3.1 2.4-5.7 2.8-5.7.4 0 2.9 1.6 5.7 3.4 3.5 2.4 5.2 3.1 5.7 2.3.7-1.1 1.2-.3 1 1.4-.1.4.7.5 1.7.2s2.2 0 2.5.6c.4.6 1.8 1.1 3.1 1.1s2.7.5 3 1c.4.6 1 .8 1.5.5 1.1-.7 6 1.5 6 2.7 0 .4-.8.8-1.7.9-1 0-.3.5 1.5 1 1.7.5 3.2 1.3 3.2 1.7 0 .4 1.5 1.5 3.3 2.5 3.4 1.9 7.7 7.7 5.7 7.7-.7 0-.8.6 0 1.9 1.4 2.7 1.3 3.1-.7 2.4-1.7-.6-1.7-.5 0 1.4.9 1.1 1.7 2.4 1.7 2.9 0 .6.9 2 2 3.2 1.2 1.2 1.8 2.2 1.4 2.2-.3 0 .1 1 .9 2.3 1.5 2.4 1.2 7.7-.4 7.7-.5 0-.9-.5-.9-1 0-.6-.5-1-1-1-.6 0-.4 1.3.5 3 .8 1.6 1.5 3.8 1.5 4.9 0 1.1.5 2.3 1 2.6.7.4.9-.2.4-1.9-.4-1.7-.2-2.6.6-2.6.9 0 .9-.4.2-1.3-1.2-1.4.2-4.6 1.5-3.4.4.5.1 1.2-.7 1.7-.9.6-1 1-.3 1 .6 0 1.5 2.1 1.9 4.7.4 2.7 1 5 1.3 5.3.4.3 1.9 2.6 3.4 5.2 1.6 2.8 3.5 4.8 4.5 4.8 1.4 0 1.4-.2.3-.9-1.9-1.2-4.2-8.3-3.1-9.6.4-.5.9-1.5 1-2 .1-.6.4-1.2.7-1.5.2-.3.4-.1.3.5-.4 1.9 0 3.1 1.8 5.1.9 1 2.5 3.1 3.5 4.6 2.6 4.1 3.7 3.4 1.6-1-1-2-2-5.2-2.3-7-.2-1.9-1.3-4-2.3-4.8-2.5-1.8-2.4-1.8 11.6 2.1 6.9 1.9 12.6 3.3 12.8 3.2.1-.2-.6-1.1-1.7-2-1.1-.9-2-1.2-2-.6 0 .5-.4.8-.9.5-.4-.3-.6-1.8-.3-3.3.3-1.6.7-2.2.9-1.6.3.7.9 1.3 1.4 1.3.4 0 .6-.7.3-1.5-.4-.9 0-1.5.7-1.5 1.1 0 1.2-.2.1-.9-.7-.4-1.2-1.2-1.1-1.7.5-3.1-.3-6.4-1.6-6.4-.8 0-1.5.4-1.5 1 0 .5.5 1 1 1 .6 0 .5.6-.2 1.4-1.5 1.6-3 0-2.3-2.4.3-1.1-.4-1.6-2.4-1.7-4.7-.3-16-5.4-19.6-8.8-2.5-2.3-3.3-3.7-2.8-5.3.3-1.2 1-2.2 1.5-2.2.6 0 .5-.7-.2-1.5-1.8-2.2-1.3-10.5.7-12.7 2.3-2.5 3.6-2.2 2.9.6-.4 1.5 0 2.8.9 3.6.8.7 1.5.9 1.5.4.1-.5.8.3 1.6 1.8.8 1.6 1.9 2.8 2.5 2.8 1.1 0-2.4-5.5-4.2-6.6-.5-.3-.7-1.5-.3-2.7.4-1.2.7-3.4.6-4.9-.1-2.8-.1-2.8 3.1-1.2 1.8.8 4.4 2.2 5.9 3 1.5.8 4.7 1.6 7.1 1.8 2.5.2 5 .6 5.5 1 .6.4 1.5-.2 2.1-1.1 1-1.7 1-1.7 1.1-.1 0 2.4 1.6 2.3 2.3-.2.5-2-.6-2.4-5.1-2.3-.7.1-1.1-.4-.9-1.1.2-.6 1.3-1.1 2.4-1 1 0 2-.7 2-1.6.2-2.7.8-4.5 1.6-5.1.4-.3.5-1.4.1-2.3-.5-1.2-1.4-1.6-3-1.3-1.7.3-2.4 0-2.4-1.1 0-1.2-.2-1.2-1.6-.1-1.5 1.2-1.6 1.1-.9-1.1 1.9-6.2 5.2-7 10.2-2.4 2.1 1.9 5.3 3.9 7.1 4.6 1.9.7 3.7 2.4 4.5 4 .6 1.5 1.9 2.8 2.7 2.9 1.3 0 1.3.1 0 .7-.8.4-1.6 1.3-1.8 2.1-.3 1.2 0 1.2 1.2.1.9-.7 1.6-.9 1.6-.4 0 .4.5.3 1.2-.4s2.5-1.2 4.1-1.2c2.9 0 3-.4 1-5.8-.3-.6 0-1.2.6-1.2s1.1-.5 1.1-1.2c0-.6-.3-.8-.7-.5-.8.8-3.3-1.1-3.3-2.5 0-.6.7-.5 1.5.2 1.3 1 1.5.9 1.5-1 0-1.4.5-2 1.3-1.7.8.3 1.4-.1 1.4-.9 0-1.2-.4-1.2-2.4.1-1.2.9-2.3 1.1-2.3.6 0-.6 1.2-1.7 2.7-2.5 1.6-.8 2.2-1.5 1.6-1.6-1.9 0-1.5-1.7.5-2.2 1-.3 1.8-1.5 1.9-2.9.2-1.6-.1-2-.6-1-.5.7-1.1.9-1.4.4-.3-.5.3-1.4 1.4-2.1 1.4-.9 1.9-.9 1.9 0 0 .6.2.9.5.7.8-.8-.7-4.9-1.6-4.3-.5.3-.9 0-.9-.6 0-.8.9-1 2.5-.6 2.3.6 2.5.4 2.5-2.7 0-2.5-.6-3.7-2.2-4.5-2.1-1-2.1-1.1-.3-.9 2 .2 2-.5 2.3-32.1L260 0H0v130zM172.8 26c-1.5 2.4-3.5 3.3-4.3 2-.4-.6.1-1 .9-1 2.5 0 1.9-2-.6-2.1-1.8-.1-1.7-.3.7-.8 3.9-1 4.7-.5 3.3 1.9zm3.2-.1c0 .4 1 .6 2.3.4 1.4-.3 2.9.3 4.2 1.7 1.7 1.8 1.7 2 .2 1.4-1.2-.4-1.7-.2-1.5.6.2.7-.3 1.5-1.1 1.8-.8.2-1.1 0-.8-.5.4-.6-.5-1.5-1.8-2.1-1.5-.7-2.5-.8-2.5-.2 0 .6.7 1 1.5 1s1.5.7 1.5 1.5c0 .9-1 1.5-2.6 1.5-3.2 0-2.7 2.2.6 2.7 1.3.2 2.6.6 2.9 1 .3.3-.4.3-1.6 0-1.3-.3-2.3-.1-2.3.4s.5.9 1.1.9c.6 0 .9 1 .7 2.2-.2 1.3-.9 2.2-1.7 2-.7-.1-1.9.3-2.7.9-1.1.9-1.4.9-1.4-.1 0-.6-.5-1-1.2-.8-.6.2-2-.4-3-1.4-1-1-2.7-1.8-3.7-1.8-1.1 0-2.2-.4-2.6-1-.3-.5-1.2-.7-2-.3-.8.3-1.5 0-1.5-.7 0-.6.8-1 1.8-.8.9.1 2.3-.1 3.1-.6.8-.5 1.6-.3 2.2.5.7 1.1.9 1 .9-.4 0-1-.8-1.7-1.9-1.7-1 0-2.4-.7-3.2-1.6-1.1-1.3-.9-1.4 1.2-.9 1.7.4 3 .1 3.8-.8.7-.9 2.3-1.3 4-1.1 2.2.4 3 0 3.9-2.1 1.1-2.4 3.2-3.5 3.2-1.6zm48.6 1.1c2.5 1 8 7.9 9.5 12 .5 1.4 1.2 3.2 1.6 4 1.2 2.9 1.2 6.1 0 5.4-.7-.4-.5.1.5 1.2 2.1 2.4 4.8 9.1 4 9.8-.3.3.3.6 1.4.6 1.3 0 1.5.3.6.8-.7.5-1.3 3-1.3 5.8-.1 2.7-.3 5.7-.6 6.6-.5 2.1-3.3 2.4-3.3.4 0-.7-1.2-2.2-2.7-3.1-2.3-1.6-2.5-1.6-2-.1.5 1.3 0 1.6-2.8 1.6-1.9 0-3.5-.5-3.5-1.1 0-.5-.4-.8-.9-.5-.5.4-1.1.1-1.3-.5-.2-.7-1.3-.9-2.5-.5-1.5.5-1.9 1.3-1.6 2.6.3 1.1 0 2-.6 2-.5 0-.8-.7-.5-1.5.4-.9 0-1.5-.7-1.5-1 0-1-.3-.3-.8 1.4-.9 3.7-5.2 2.8-5.2-.4 0-2.2 1.7-4 3.7-2.5 2.8-3.6 3.5-4.5 2.6-.9-.9-.6-2 1.1-4.8 1.4-2.2 1.9-4.2 1.5-5.3-.4-.9-.9-2.8-1-4-.3-1.9 0-2.3 1.5-1.9 1.1.3 1.8 0 1.7-.7-.1-.6.9-1.1 2.3-1.2 1.4 0 3.7-.8 5-1.8l2.5-1.8-3.5.7c-1.9.4-4.3.9-5.3 1.2-1.1.3-1.6 0-1.5-.9.2-.7-.7-1.4-1.9-1.6-3.4-.5-2.8-2.1.7-1.9 1.6.1 3-.1 3-.6V45c0-.6-.8-1.1-1.7-1.1-1-.1-.4-.5 1.2-.9 1.7-.4 2.2-.8 1.3-.9-.9 0-2-1-2.3-2.1-.4-1.1-1.1-1.8-1.6-1.4-1.4.8-7.1-1.6-6.6-2.9.2-.6 1.8-1.6 3.6-2.2 1.8-.6 2.9-1.4 2.5-1.8-.4-.4-1.3-.2-2.1.4-.9.9-1.3.8-1.3 0 0-.6.6-1.2 1.3-1.2.6-.1 1.9-.2 2.7-.3.8 0 1.6-.9 1.8-2 .4-1.6 0-1.8-3.2-1.2-2.4.5-3.6.3-3.6-.5 0-.6.7-.9 1.5-.5.8.3 1.5.1 1.5-.4 0-1.1 7.9-.4 11.6 1zM125 37.7c1.4.9 2.9 2.3 3.3 3 .4.7 1.8 1.3 3 1.3 2.9 0 3.9.8 7.6 5.4 3.4 4.2 4 6.1 1.6 5.2-.8-.3-1.5-.3-1.5 0 0 1.1 4.5 4.3 6.1 4.4 2.1 0 4.8 3 2.8 3-1.1 0-1.1.2.1 1 1.2.8 1.3 1.3.3 2.9-1 1.5-1 2.1 0 2.4.7.3.2.6-1 .6-1.2.1-2.5-.4-2.8-.9-.5-.8-1.1-.8-2 0-1 .8-1.5.8-2-.1-.4-.6-.1-1.5.6-2 .7-.4 1-1.1.6-1.5-.4-.4-.1-1.5.7-2.3 1.3-1.5 1.1-1.8-2-2.7-2.9-.9-3.4-.9-3 .2.4 1-.3 1.4-1.9 1.4-1.4 0-2.5.4-2.5 1 0 .5.7.7 1.7.3.9-.4-.4 1.2-2.8 3.4-4.6 4.2-10.9 8.3-12.7 8.3-1.4 0-2.6-3.4-1.3-3.8.7-.2.6-1-.1-2.2-.6-1-1.8-1.6-2.6-1.3-1.1.5-1.1.7 0 1.5 1 .7.9.8-.4.4-2-.6-2.5 1-.5 1.7.7.3.4.6-.6.6-1.2.1-1.6.6-1.1 1.3.5 1 .4 1-.7 0s-1.1-1.6-.1-3c2.3-3.3 2.4-4.3.6-6.3-1.6-1.7-1.6-2.2-.4-3 1.3-.9 1.3-1 0-.6-1.4.3-4-1.4-4-2.8 0-.4 1.1-.5 2.5-.3 1.3.3 2.2.2 2-.3-.3-.4.1-1 .7-1.2.7-.3-.2-.6-1.9-.6-3.7-.1-4-.8-1.9-3.7 1.3-1.6 1.8-1.7 3.5-.6 1.9 1.1 2.1 1 2.1-1.7 0-2.4.5-2.9 3.2-3.5 1.7-.3 2.9-.8 2.7-1.1-.3-.2-2-.1-3.9.3-4.2.9-8.3.4-7.5-.9.4-.5-.1-.9-.9-.9-3 0-1.6-1.8 2.2-2.8 5.8-1.6 11.5-1.4 14.2.5zm28.5-.7c.3.5-.3 1-1.4 1-1.2 0-2.1-.5-2.1-1 0-.6.6-1 1.4-1 .8 0 1.8.4 2.1 1zm4 2c.3.5-.3 1-1.5 1s-1.8-.5-1.5-1c.3-.6 1-1 1.5-1s1.2.4 1.5 1zm58.2 1.6c-.3.3-1.2.4-1.9.1-.8-.3-.5-.6.6-.6 1.1-.1 1.7.2 1.3.5zM153 43c0 .5-.4 1-1 1-.5 0-1-.5-1-1 0-.6.5-1 1-1 .6 0 1 .4 1 1zm-40.2 1.2c2.1 2.1 1.3 2.7-1.8 1.7-1.6-.6-2.7-1.5-2.4-2 .7-1.3 2.8-1.1 4.2.3zm55.2 1.3c0 .8-.4 1.5-1 1.5-.5 0-.7-.7-.4-1.5.4-.8.8-1.5 1-1.5.2 0 .4.7.4 1.5zm4-.1c0 .2-.7.7-1.6 1-.8.3-1.2.2-.9-.4.6-1 2.5-1.4 2.5-.6zm37.7 1.5c0 1.1-.5 1.8-.9 1.5-.4-.3-.5-1.1-.1-1.9.7-2.1 1.2-1.9 1 .4zM163.5 50c.3.5.1 1-.4 1-.6 0-1.1-.5-1.1-1 0-.6.2-1 .4-1 .3 0 .8.4 1.1 1zm51.5 1.6c0 .8-.5 1.2-1 .9-.6-.4-.8-1.1-.5-1.6.9-1.4 1.5-1.1 1.5.7zm-108 5.3c0 .6-.4 1.2-1 1.6-.5.3-.7 1.2-.3 2 .3.8.1 1.5-.5 1.5-.5 0-1.2-.7-1.6-1.5-.3-.8-.1-1.5.5-1.5s.9-.7.5-1.5c-.3-.9 0-1.5.9-1.5.8 0 1.5.4 1.5.9zm-19 3.9c0 .5 1.2.7 2.8.5 3.2-.5 11.6 3 13.4 5.5.7 1 3 2.8 5.1 4.1 2 1.2 3.7 2.7 3.7 3.2s1.2.4 2.8-.2l2.7-1-2.9 2.4c-2.5 2-2.7 2.5-1.2 3 1 .4 1.4 1.1 1.1 1.7-.4.6-1 .8-1.5.5-1.2-.8-4 .5-4 1.9 0 1.3 2.8 1.5 4.7.3 1.5-.9 4.5.2 3.7 1.5-.3.5-1.2.7-2 .4-1.7-.7-1.8 1.6-.2 3.2.9.9.9 1.2 0 1.2-2.2 0-1.2 2 1.1 2.1 1.6.1 1.8.2.5.6-1 .2-1.8.9-1.8 1.4 0 .6.5.7 1 .4.6-.3 1-.1 1 .5 0 .7-.7.9-1.6.6-.9-.3-2-.6-2.5-.6s-.9-.8-.9-1.8c-.1-1.6-.1-1.6-1.4 0-1.9 2.6-4 2.4-2.6-.2 1.3-2.5.2-2.6-1.7-.3-1.3 1.7-1.4 1.6-.9-.7.3-1.4.6-3.1.6-3.9 0-.8.6-1.1 1.5-.7.8.3 1.5.1 1.5-.5 0-.5-.7-1.2-1.5-1.5-1.3-.5-1.3-.9-.3-2.2 1.1-1.3 1-1.4-.9-.4-1.7.9-2.2.9-2.7-.3-.3-.8-.3-2.2 0-3 .4-.8.1-1.5-.5-1.5s-1.1-.7-1.1-1.5-.4-1.5-1-1.5c-1.3 0-1.3 1.7.1 2.6.8.4.8.9-.1 1.8-1.4 1.4-3.2-1.1-2.6-3.7.2-.9 0-1.7-.5-1.7s-.9-.7-.9-1.5-.6-1.5-1.4-1.5c-.8 0-2.4-1.2-3.5-2.6-2.3-2.9-2.9-2-.8 1.1 4.3 6.5 4.2 17-.1 18.6-1.4.5-3.2.7-3.9.4-.8-.3-2.3-.1-3.2.5-1.3.6-2.4.5-3.7-.6-1.7-1.4-1.7-1.5-.1-1 2.9.9 1.9-.8-1.3-2.2-2.3-1.1-2.8-1.7-2.1-3 1-1.8-.3-6.2-2.2-7.4-.9-.6-.8-1 .2-1.7.8-.5 1.1-1.6.8-2.5-.4-1-.1-1.6.8-1.6 1.8 0 2-2.1.3-3.8-.9-.9-.7-1.2 1-1.2 1.2 0 2.2-.4 2.2-.9 0-.9 2.1-1.6 5.8-2 .6 0 1.2.3 1.2.7zm125.4.8c.7 1.8-1 4.4-2.8 4.4-.6 0-.5-.4.3-.9s1.1-1.6.6-3c-.7-2.4 1-2.9 1.9-.5zm-102.4 2c0 1.2-.2 1.2-1.4.2-.8-.7-1.2-1.6-.9-2.1.7-1.1 2.3.2 2.3 1.9zm142-.6c1 0 1.1.3.3 1.1-1.2 1.2-6.3.2-6.3-1.3 0-.6 1-.8 2.3-.4 1.2.3 2.9.6 3.7.6zM74 64.5c-.9 1-.9 1.5-.1 1.5.6 0 1.1.5 1.1 1.2 0 .6-.7.4-1.8-.5-1-1-2.2-1.4-2.5-1-.4.3-.7.3-.7-.1 0-.3 1-1.1 2.3-1.6 3-1.2 3.1-1.2 1.7.5zm66.5 3.5c.4.6 1 .8 1.5.5.4-.3 1.5.6 2.4 2 1.5 2.3.9 3.5-.8 1.8-1.2-1.3-3.5-1.1-3 .2.6 1.4-2.1 2.7-4.5 2.1-.9-.2-2.9-.7-4.4-1-2.5-.6-2.6-.8-1.2-2.2.9-.9 2.5-1.4 3.5-1.1 1.1.3 2.3 0 2.7-.5.3-.7.1-.8-.5-.4-1.3.8-1.7-.6-.5-1.7 1-1.1 4.1-.8 4.8.3zm6.9 1.7c1 2.5.3 2.3-1.7-.3-1.3-1.8-1.4-2.2-.3-1.8.8.3 1.7 1.3 2 2.1zm-74.1-1.1c1 1-.4 3.4-2.1 3.4-1.3 0-1.2-.3.4-1.5 1.8-1.5 1.8-1.5 0-.8-1.3.4-1.7.3-1.2-.5.8-1.3 1.9-1.5 2.9-.6zm43.7 1.8c0 .3-.4.8-1 1.1-.5.3-1 .1-1-.4 0-.6.5-1.1 1-1.1.6 0 1 .2 1 .4zm105.4 1.1c.3.8.1 1.5-.4 1.5-.6 0-1-.7-1-1.5s.2-1.5.4-1.5.6.7 1 1.5zM69 73c0 .5-.4 1-1 1-.5 0-1-.5-1-1 0-.6.5-1 1-1 .6 0 1 .4 1 1zm185.4 1.5c.3.8.1 1.5-.4 1.5-.6 0-1-.7-1-1.5s.2-1.5.4-1.5.6.7 1 1.5zm-100.6 5.3c1.1 1 3.3 2.7 4.7 3.8 1.5 1 3.4 2.5 4.2 3.3 1.2 1.1 1.6 1.2 2.3.2.9-1.6 5 2.4 5 4.9 0 .9.9 3.5 2 5.8 2.1 4.4 2.6 6.7 1.1 5.8-.5-.3-.9 0-.8.7.1 4.4-.4 5.6-2 5-4.8-1.8-13.2-9.5-13.3-12.2 0-1.1-1.2-1.2-5.2-.7-4.6.5-5.1.4-3.5-.8.9-.7 1.7-1.8 1.7-2.4 0-.6.8-1.9 1.8-2.8 1.6-1.7 1.6-1.8 0-1.1-1.2.4-1.8.2-1.8-.8 0-.8-.4-1.5-1-1.5-.5 0-1-.5-1-1 0-.6.8-1 1.7-1 .9 0 1.3-.3.9-.8-.4-.4-1.2-.7-1.7-.7-1 0-1.1-1.2-.3-3.8.7-2.2 2.5-2.2 5.2.1zm-51.7 2.5c-.9.9-1.4.8-2.1-.3-.7-1.1-.4-1.7.8-2.1 2.1-.8 2.9.8 1.3 2.4zm-35.7 2.4c1.6.9 4.3 1.7 5.9 2 5.6.9 15.5 8.6 16.2 12.5.4 1.9-.1 3-2 4.2-1.3.9-3.1 1.6-4 1.6-.8 0-1.5.4-1.5 1 0 1.3.4 1.3 4.8-.7 2-.9 4.4-1.7 5.2-1.8 2.1-.3 2.5 4.4.5 5.1-.8.4-1.5 1.1-1.5 1.6 0 .6 1.2.3 2.6-.7 2.5-1.6 2.6-1.6 1.9.4-.3 1.2-.3 2.1.2 2.1 1 0 .8 6.3-.2 7.9-.3.6-1.6 1.1-2.8 1.2-1.5 0-1.7.2-.7.6.8.3 1.8 1.1 2.2 1.7.5.6.8.7.8.1s.4-1.6.9-2.4c.8-1.2 1.2-1.2 2.5.2 1.9 1.9 2.1 3.1.3 2.4-.8-.3-1.4.1-1.4.9s.4 1.4.9 1.4.2 1-.6 2.2c-2 2.9-2 2.8.9 6.2 1.3 1.6 2.2 3.3 1.9 3.8-.3.5-1.3 0-2.2-1-1-1-2.3-1.7-3-1.5-.7.3-1-.1-.6-1.1.3-.8.1-2.3-.5-3.3-.9-1.6-1-1.6-1.1-.2 0 2-2.4 3.1-3.7 1.8-1.2-1.2-4.6 1.8-3.7 3.2.8 1.3 2.4.1 2.4-1.9.1-1.5.2-1.5 1.5.2.8 1.1 1.5 1.4 1.5.8 0-.7.5-1.2 1-1.2 1.9 0 1 1.7-1.5 2.8-3.6 1.7-8.2 1.5-8.9-.3-.3-.8-1.3-1.5-2.2-1.5-1.3 0-1.4-.3-.4-1.5.7-.8 1-2.2.6-3-.3-.8-.1-1.5.5-1.5s.9-.7.5-1.5c-.4-1.1.1-1.5 1.7-1.5h2.1l-2.2-1.6c-1.6-1.1-2.1-2.2-1.7-3.7.5-1.6.4-1.8-.3-.8-.8 1.1-1.4.9-3.1-.8-1.1-1.1-1.8-2.7-1.5-3.4.3-1-.3-1.4-2.3-1.3-2.5.1-2.8.5-2.7 3.3 0 1.7-.4 3-.8 2.7-.4-.3-.8.4-.8 1.5 0 1.5-.9 2.2-3.5 2.7-5.9 1.1-3.9 2.2 4 2.1 7.5 0 10.4.8 6.9 1.8-1 .3-3.6 1.4-5.7 2.5l-3.8 1.9-.9-2.5c-1.1-2.9-2.5-3.2-1.7-.4.6 2.3.3 2.5-1.5.7-.7-.7-2.6-2.1-4.2-3.1l-3-1.9 3-2.3c2.5-2.1 2.7-2.4.9-2.5-1.7 0-1.7-.2.4-1 1.9-.7 2.2-1.2 1.3-2.1-1.8-1.8-1.4-3 .7-2.3 1.1.3 2.6-.1 3.5-1 1.5-1.5 1.5-1.8 0-3.2-1.3-1.3-1.9-1.4-3.9-.3-2 1.1-2.7 1.1-4.2-.1-1.5-1.2-1.6-1.2-1 .4.5 1.3.3 1.7-.5 1.4-.7-.2-1.2-1.2-1.2-2.1.1-.9-.4-1.6-1.2-1.6-.8 0-1.4-.4-1.4-.9s-.8-1.7-1.7-2.7c-1.6-1.6-1.6-1.6.2-1.1 6.1 1.6 7.7 1.8 7.3.5-.3-.7-1.4-1.2-2.5-1-1.2.2-2.4-.6-3.1-2-.6-1.3-1.1-1.7-1.1-1.1-.1 1.2-3.1 1.9-3.1.7 0-1.7 6.6-5.4 9.5-5.4.8 0 1.5.5 1.5 1.1 0 .6-.7.9-1.5.5-.8-.3-1.5-.1-1.5.4 0 .6-.7 1-1.6 1-.8 0-1.2.5-.9 1 .4.6 1.2.7 1.8.3 1.9-1.2 4.5-1 4 .2-.2.7.4 1.5 1.4 1.9.9.4 1.4.4 1 0-.4-.4-.2-1.3.3-1.9.8-.9.6-1.4-.5-1.9-2.4-.9-1.8-2.6 1-2.6 1.4 0 2.5.4 2.5 1 0 .5.4 1 1 1 .5 0 .7-.7.4-1.5-.4-.8-1.5-1.5-2.6-1.5-1.6 0-1.4-.5 1.4-3 4-3.7 2.4-3.8-4.8-.4-3 1.4-6.4 2.4-7.5 2.1-1.1-.3-1.9 0-1.9.6 0 .7-.4.6-.9-.2-1.3-2-.2-4.3 1.7-3.6 1.2.4 1.3.3.2-1-.9-1.1-1.7-1.2-3-.5s-2.1.7-2.5 0c-.3-.5-.1-1 .4-1 .6 0 1.1-.7 1.1-1.5 0-1.8 1.4-1.9 4.1-.5 1.5.8 1.9.7 1.9-.4 0-1.8 5.6-3.6 8.5-2.9 1.1.3 3.3 1.2 4.9 2zM44.5 86c.3.5.2 1-.4 1-.5 0-1.3-.5-1.6-1-.3-.6-.2-1 .4-1 .5 0 1.3.4 1.6 1zm-1.4 9.2c0 .9.2.9.5.2.6-1.5 4.6-.5 4.1 1-.2.6-1 1.1-1.8 1.1s-1.7.4-2.1.9c-.8 1.2-3.8 1.7-3.8.6 0-.5-.3-1.6-.7-2.6-.4-1.2-.3-1.5.5-1 .7.4 1.2.2 1.2-.3 0-1.5 2-1.4 2.1.1zm173.6-.6c-.3.3-1.2.4-1.9.1-.8-.3-.5-.6.6-.6 1.1-.1 1.7.2 1.3.5zm7.3 8.5c0 .5-.4.9-1 .9-.5 0-1-.7-1-1.6 0-.8.5-1.2 1-.9.6.3 1 1 1 1.6zm-28 2c0 .6-.4.7-1 .4-.5-.3-1-1.1-1-1.6 0-.6.5-.7 1-.4.6.3 1 1.1 1 1.6zm-18.3 8.4c2.2 2 2.3 2.3.7 1.9-1-.3-3-1.4-4.4-2.4-2.1-1.6-2.2-2-.7-2 1 0 3 1.1 4.4 2.5zm-124.6 2c1.1-.4 1.9-.2 1.9.5 0 .8-.9 1-2.7.6-1.6-.3-3.8-.8-5.1-1-1.2-.2-2.6-.7-3-1.1-.4-.5.1-.5 1-.2 1 .3 2 .2 2.3-.4.4-.5 1.3-.3 2.2.6.9.9 2.3 1.3 3.4 1zm23.3 9.1c.3.8.2 1.2-.4.9-.6-.3-1-1-1-1.6 0-1.4.7-1.1 1.4.7zm21.6 5.9c-.7.9-1.5 1.3-1.7 1.1-.7-.7.7-2.6 1.9-2.6.6 0 .6.6-.2 1.5zm-22 .5c0 .5-.7 1-1.6 1-.8 0-1.2-.5-.9-1 .3-.6 1-1 1.6-1 .5 0 .9.4.9 1zm-9 5.1c0 .5-1.7.9-3.8.9-2.5 0-3.9-.5-3.9-1.3s1.3-1.1 3.9-.9c2.1.2 3.8.8 3.8 1.3zm35.5-1.1c.3.6-.1.7-.9.4-1.8-.7-2.1-1.4-.7-1.4.6 0 1.3.4 1.6 1zm-18.4 4c1.3 0 3.1.5 3.9 1.1 1.3.9 1.3 1 0 .8-.8-.1-2.4-.1-3.5 0-1.5.1-1.7.4-.7 1 .7.4 2.4.6 3.6.4 1.4-.3 2.5.1 2.8.9.4.9-.1 1.4-1.3 1.4-1.1 0-1.9-.4-1.9-.9 0-.4-.4-.5-1-.2-1.2.7-5.3-1.9-4.3-2.8.3-.4-.1-.7-1-.7s-1.7-.2-1.7-.4-.3-1.3-.7-2.3c-.6-1.7-.6-1.7 1.4-.1 1.1 1 3 1.8 4.4 1.8zm9.7-.9c-1 .5-1.8 1.7-1.8 2.5s-.5 1.2-1.1.9c-1.2-.8 1.7-4.5 3.5-4.5.6 0 .3.5-.6 1.1zM96 140c0 .5-.5 1-1.1 1-.5 0-.7-.5-.4-1 .3-.6.8-1 1.1-1 .2 0 .4.4.4 1zm3 1c0 .5-.2 1-.4 1-.3 0-.8-.5-1.1-1-.3-.6-.1-1 .4-1 .6 0 1.1.4 1.1 1zm-26.9 2l2.4 1.9-6.7.1c-3.6 0-7.5.3-8.5.6-1.2.4-.8-.3 1.1-2 3.5-3.2 8.4-3.4 11.7-.6zm29.9 5c0 .5-.4 1-1 1-.5 0-1-.5-1-1 0-.6.5-1 1-1 .6 0 1 .4 1 1zm-26.5 4.2l2.6 2.3h-8.4c-7.7 0-8.3-.1-7.3-1.7 2.1-3.4 9.4-3.7 13.1-.6zm142.5 3.4c0 .2-.7.4-1.5.4s-1.5-.4-1.5-1c0-.5.7-.7 1.5-.4.8.4 1.5.8 1.5 1zM76.2 159c.9 0 2.6.8 3.8 1.8 2.2 1.8 2.2 1.8-6 3.1-5.4.8-8.6.9-9.2.3-1.6-1.6-.1-3 4.2-4.3 2.8-.9 3.7-1.6 3.3-2.8-.4-1.3-.2-1.3 1 .1.8 1 2.1 1.8 2.9 1.8zm7.8-.4c0 .2-.9.4-2.1.4-1.1 0-1.8-.4-1.4-1 .5-.8 3.5-.3 3.5.6zm4.3 6.4c.8 0 .8.3 0 1.1-1.3 1.3-4.3.5-4.3-1.2 0-.6.7-.8 1.6-.5.9.3 2.1.6 2.7.6zm-1 4.7c1.2 1.2 3.7 2.4 5.6 2.8 2.9.6 3.2.9 1.7 1.7-1.4.8-2.5.5-4.7-1.1-2.6-2-10.6-3.1-9.6-1.4.3.5-2.1.9-5.3 1-4.3.1-6-.2-6.4-1.3-1.7-4.3 14.3-5.7 18.7-1.7zm3 5.5l4.2 2.3-4.3.3c-2.4.2-4 .7-3.6 1.3.3.6-.4.8-1.8.4-1.3-.3-3.9.2-6.1 1.4-3.7 1.9-3.7 1.9-4.8-.1-1.4-2.6-.4-3.6 6.3-5.9 2.9-1 5.4-1.8 5.6-1.9.1 0 2.2 1 4.5 2.2zm13.4 1.4c-.3.3-1.2.4-1.9.1-.8-.3-.5-.6.6-.6 1.1-.1 1.7.2 1.3.5zM100 179c1.2.8 1.2 1-.3 1.6-1.3.5-1.5 1-.7 2 .9 1 .3 1.3-2.7 1.6l-3.8.3 4.2.5c2.3.3 3.9.2 3.7-.2-.8-1.2 3.5-2 5.3-.9 1.7.9 1.7 1 0 1.6-2.5 1-.3 3.5 3 3.5 1.8 0 2.4.4 1.9 1.5-.7 1.9 2 3.3 6.8 3.7 3.9.2 4.3.7 2.4 2.7-1.1 1.1-.9 1.3 1 .8 1.2-.3 2.2-.2 2.2.3 0 .4 1 .5 2.3.3 1.2-.2 3.1.3 4.2 1.1 1.1.9 1.4 1.6.8 1.6-.7 0-1.3.5-1.3 1.1 0 .7 1.1 1 2.8.7 1.5-.3 3.8-.2 5.2.2l2.5.7-2.4 1c-2 .8-2.1 1.1-.8 1.6 1 .4 1.7.2 1.7-.4 0-.6.5-.7 1.2-.3.6.4 2.9.8 5.1.8 4.5.1 6.6 2.6 2.2 2.6-1.5 0-2.4.4-2 1 .3.6-.1 1.3-.9 1.6-.9.3-1.6 1.1-1.6 1.7 0 .5.8.3 1.8-.6 2-1.9 4.9-2.2 7.1-.8 1.3.8 1.3 1.2 0 2.7-1.2 1.5-1 1.5 1.2-.1 2.4-1.8 2.5-2.1 1-3.2-1.4-1.1-1.1-1.2 1.7-1.3 2.2 0 3.2.5 3.2 1.5 0 .8-.5 1.5-1.1 1.5-.5 0-.8.4-.5.8.3.5 3.3.5 6.7 0 6.5-.9 9.5-.3 4.1.8-1.9.4-4.1 1.9-5.5 3.8-3.5 4.6-4 5.7-2.6 5.4.6-.2 1.4.3 1.7 1.1.3 1-.1 1.3-1.7.8-1.1-.3-2.4-.1-2.7.4-.9 1.5-4.7 1-7.7-1l-2.8-1.8 3-.6c2.1-.5 3.1-1.2 3-2.4 0-1.1-.3-1.3-.6-.6-.2.7-1.3 1.3-2.3 1.3-2.8 0-5.1 1.1-4.4 2.1.9 1.6-7 0-8.2-1.6-.6-.8-1.9-1.5-2.8-1.5-.9 0-1.6-.4-1.6-1s1-.6 2.7.1c2.3.8 3 .6 5-1.4 2.5-2.4 2.3-6.3-.3-5.3-.9.3-1.1 0-.7-1.2.6-1.5.5-1.5-1-.3-2.2 1.7-2.2 2.8.1 3.4 1 .3.5.5-1.3.7-2.6.1-2.7.3-1 1 1.7.7 1.7.9.3.9-1 .1-2 0-2.1-.2-.2-.1-1.1.4-2 1.1-1.9 1.6-7.7.7-7.7-1.2 0-.7 2.3-3.5 5.1-6.1 2.8-2.6 4.8-4.9 4.5-5.2-.3-.3-1.2.2-2.1 1.1-.9.9-2.2 1.7-2.8 1.8-2.2.2-3.2.5-4.9 1.3-2.2.9-2.4 2.7-.3 1.9.8-.4 1.5-.1 1.5.6 0 .6-1 1-2.2.9-1.3-.2-2.9 0-3.6.5-.7.4-2.3.5-3.6.2-1.8-.4-2.3-1.3-2.3-3.8 0-1.8.2-2.7.4-2.1.3.9 2 .1 4.7-2.2 2.4-1.9 4.9-3.5 5.7-3.5 1.1 0 1.1-.2-.1-1-2-1.3-4.3-1.3-3.4.1.9 1.5-1.7 3-3.9 2.3-1.2-.4-3.3.5-5.8 2.5-3.2 2.7-4.2 3-5.9 2.1-2.4-1.3-2-2.1 3.1-6.7 6.7-6.1 2-7.5-5.7-1.7-4.6 3.6-4.7 3.6-6.6 1.6-2-1.9-2-2 1.2-4.2 2-1.4 2.9-2.8 2.6-3.7-.5-1.1-.2-1.3.9-.9.9.3 1.3.2 1-.4-1-1.7-3-1.1-7.4 2.1-3.2 2.3-4.6 2.8-5.6 1.9-1.4-1.1-2.7-5.1-1.6-4.8 1.3.4 5.1-2.3 4.6-3.3-.4-.5-.1-.9.6-.9 1 0 1-.3.2-1.1-.9-.9-2.4-.6-5.8 1-3.7 1.7-5 1.9-6.1 1-1.1-.9-1.2-1.5-.2-2.6 1.9-2.3 8.5-5.3 11.8-5.3 1.6 0 3-.5 3-1 0-1.3 3-1.3 5 0zm9 19.4c0 .2-.7.7-1.6 1-.8.3-1.2.2-.9-.4.6-1 2.5-1.4 2.5-.6zm74.1 4.3c1.2 1.6 1.2 1.7-.1.7-.8-.6-2.2-1.4-3-1.7-1.3-.5-1.2-.6.1-.6.9-.1 2.3.7 3 1.6zm23.4 19.3c.3.6-.4 1-1.7 1-1.8 0-2-.2-.8-1 1.9-1.2 1.8-1.2 2.5 0z"/><path d="M168 37c-2.4.8-2.4.8.7.9 1.7.1 3.5.5 3.8 1.1.3.5 1.1 1 1.7 1 .6 0 .3-.9-.7-2-2-2.2-1.9-2.2-5.5-1zM218 28.5c0 .9.6 1.2 1.5.9.8-.4 1.5-.7 1.5-.9 0-.2-.7-.5-1.5-.9-.9-.3-1.5 0-1.5.9zM221.9 30.6c-1.2 1.4-1.1 1.6.5 1.3 1.1-.2 2.1-1 2.4-1.7.5-1.7-1.3-1.5-2.9.4zM217.2 32.9c-1.1.7-1 1 .3 1.5 2.6 1 3.5.7 2.9-.9-.7-1.7-1.3-1.8-3.2-.6zM225 33.6c0 .8.5 1.2 1 .9.6-.4.8-1.1.5-1.6-.9-1.4-1.5-1.1-1.5.7zM228 44.1c0 .5.5.7 1 .4.6-.3 1-.8 1-1.1 0-.2-.4-.4-1-.4-.5 0-1 .5-1 1.1zM215 59.8c0 1.9 3.5 4.1 5 3.2 1.3-.8 1.2-1-.3-1-1 0-2-.7-2.3-1.5-.6-1.6-2.4-2.1-2.4-.7zM118 57.1c.7 1.1 1.4 1.9 1.6 1.6.7-.7-.7-3.7-1.7-3.7-.6 0-.5.9.1 2.1zM116.6 62c-1.9.6-1.9.7-.1 1.3 2 .8 2.9.4 2.4-1.1-.2-.5-1.3-.6-2.3-.2zM119.6 64.5c-.3.9 0 1.5.9 1.5s1.2-.6.9-1.5c-.4-.8-.7-1.5-.9-1.5-.2 0-.5.7-.9 1.5zM83.8 66.7c.7.3 1.6.2 1.9-.1.4-.3-.2-.6-1.3-.5-1.1 0-1.4.3-.6.6zM87.8 69.7c.7.3 1.6.2 1.9-.1.4-.3-.2-.6-1.3-.5-1.1 0-1.4.3-.6.6zM150 80.1c0 .5.5.7 1 .4.6-.3 1-.8 1-1.1 0-.2-.4-.4-1-.4-.5 0-1 .5-1 1.1zM66.5 92c-.3.5-.1 1 .4 1 .6 0 1.1-.5 1.1-1 0-.6-.2-1-.4-1-.3 0-.8.4-1.1 1zM77.9 106.8c-1 .4-1.4 1.3-1 2.4.5 1.5.8 1.3 1.8-.7.6-1.4 1-2.5 1-2.4-.1 0-.9.3-1.8.7zM54 107.4c0 .2.9.6 2 .9 1.1.3 1.8.1 1.4-.4-.5-.9-3.4-1.3-3.4-.5zM76 116c0 .5.5 1 1 1 .6 0 1-.5 1-1 0-.6-.4-1-1-1-.5 0-1 .4-1 1zM89.8 119.7c.7.3 1.6.2 1.9-.1.4-.3-.2-.6-1.3-.5-1.1 0-1.4.3-.6.6zM80.5 122c-.3.5-.1 1 .4 1 .6 0 1.1-.5 1.1-1 0-.6-.2-1-.4-1-.3 0-.8.4-1.1 1zM57 125.4c0 .2.7.7 1.6 1 .8.3 1.2.2.9-.4-.6-1-2.5-1.4-2.5-.6zM83.6 126.7c-.4 1.1-.1 1.1 1.4.3 2.4-1.3 2.5-1.7.5-1.7-.8 0-1.6.6-1.9 1.4zM93.4 126.4c-.8 2.2-.2 2.7 1.6 1.6 1.2-.7 1.2-1.2.3-2.1-1-1-1.4-.9-1.9.5zM66 130c0 .5.5 1 1 1 .6 0 1-.5 1-1 0-.6-.4-1-1-1-.5 0-1 .4-1 1zM103.5 190c-1.8.7-1.8.8.7 1.5 3.5.9 5.3.3 3.1-1.1-1-.6-2.7-.8-3.8-.4zM153.6 216.6c-.4.9-.4 1.9-.1 2.2.2.3.7-.3 1.1-1.2.4-.9.4-1.9.1-2.2-.2-.3-.7.3-1.1 1.2zM230.3 95.7c2.4.3 3.5.8 3.1 1.5-.4.7-.2.8.5.4 2-1.3.1-2.6-3.7-2.4l-3.7.1 3.8.4zM257.8 105.7c.7.3 1.6.2 1.9-.1.4-.3-.2-.6-1.3-.5-1.1 0-1.4.3-.6.6zM257.5 108.9c-.3.5-2 .8-3.8.5-4-.5-8.7.4-8.7 1.8 0 .6.7.7 1.5.4 4.4-1.8 5.1-1.8 3.1-.2-1.1.9-1.4 1.6-.7 1.6s.9.5.6 1c-.4.6-1.6.8-2.8.5-2.1-.5-2.1-.5-.3.7 1.1.7 3 2.4 4.3 3.7 1.3 1.3 2.7 2.1 3.1 1.6.4-.4.2-1-.5-1.2-.7-.2-1-1-.7-1.8.3-.7-.3-1.6-1.3-1.9-1-.3-.6-.4 1-.2 2.7.3 3-.1 3-3.7 0-1.3.3-1.5 1-.8.9.9 3.7-.8 3.7-2.3 0-.9-1.8-.7-2.5.3z"/><path d="M257 116c-1.4 1-2.2 2.1-2 2.4.3.2 1.6-.4 3-1.4 1.4-1 2.2-2.1 2-2.4-.3-.2-1.6.4-3 1.4zM194 117c0 .5.5 1 1.1 1 .5 0 .7-.5.4-1-.3-.6-.8-1-1.1-1-.2 0-.4.4-.4 1zM133 117.4c0 .2.7.6 1.5 1 .8.3 1.5.1 1.5-.4 0-.6-.7-1-1.5-1s-1.5.2-1.5.4zM240.5 137c-.3.5-.2 1 .4 1 .5 0 1.3-.5 1.6-1 .3-.6.2-1-.4-1-.5 0-1.3.4-1.6 1zM209 173c0 .5.5 1 1 1 .6 0 1-.5 1-1 0-.6-.4-1-1-1-.5 0-1 .4-1 1zM209.5 176c-.3.5.1 1 1 1s1.3-.5 1-1c-.3-.6-.8-1-1-1-.2 0-.7.4-1 1zM149 177.1c0 .5.5.7 1 .4.6-.3 1-.8 1-1.1 0-.2-.4-.4-1-.4-.5 0-1 .5-1 1.1zM160.5 182.5c4.5 3.8 5.5 4.2 5.5 2 0-.8-.6-1.5-1.4-1.5-.7 0-2.5-.9-3.9-2-4.3-3.4-4.4-2.2-.2 1.5zM188.9 225.7c2.6.3 3.1.7 2 1.4s-.9.9.9.9c1.3 0 2.2-.6 2.2-1.5 0-1.1-1.1-1.5-4.2-1.3-4 .1-4.1.1-.9.5zM246.5 226c-.3.5-.1 1 .4 1 .6 0 1.1-.5 1.1-1 0-.6-.2-1-.4-1-.3 0-.8.4-1.1 1zM174.6 228c-1.7.6-1.8.7-.3 1.3.9.3 1.9.2 2.3-.4.9-1.5.2-1.8-2-.9zM230.3 229.5c0 1.4.3 2.2.8 1.9.5-.3.9-1.1.9-1.9 0-.8-.4-1.6-.9-1.9-.5-.3-.8.5-.8 1.9zM186.8 230.7c.6.2 1.8.2 2.5 0 .6-.3.1-.5-1.3-.5-1.4 0-1.9.2-1.2.5z"/></svg>